<?xml version="1.0" standalone="no"?>
<!DOCTYPE svg PUBLIC "-//W3C//DTD SVG 20010904//EN"
 "http://www.w3.org/TR/2001/REC-SVG-20010904/DTD/svg10.dtd">
<svg version="1.0" xmlns="http://www.w3.org/2000/svg"
 width="834.000000pt" height="834.000000pt" viewBox="0 0 834.000000 834.000000"
 preserveAspectRatio="xMidYMid meet">
<metadata>
Created by potrace 1.14, written by Peter Selinger 2001-2017
</metadata>
<g transform="translate(0.000000,834.000000) scale(0.100000,-0.100000)"
fill="#000000" stroke="none">
<path d="M1829 6963 c-165 -84 -184 -303 -36 -413 l47 -35 0 -106 0 -106 -55
-37 c-67 -46 -167 -151 -218 -229 -47 -71 -80 -144 -115 -256 l-26 -86 -1
-445 0 -445 24 -52 c61 -135 224 -205 361 -155 30 11 69 25 87 33 29 12 36 10
90 -18 122 -63 185 -78 333 -78 147 0 212 15 330 76 30 16 61 29 68 29 7 0 38
-12 68 -26 163 -77 340 -10 424 160 l31 63 -3 424 c-4 402 -5 428 -26 497 -60
199 -198 393 -364 511 l-48 34 1 106 0 106 48 37 c149 113 128 328 -41 412
-132 66 -286 8 -344 -129 -39 -95 -1 -228 82 -286 44 -30 44 -30 44 -89 0 -33
-1 -60 -2 -60 -2 0 -28 7 -58 15 -88 25 -260 30 -368 11 -50 -9 -97 -16 -102
-16 -6 0 -10 24 -10 53 0 50 2 54 50 95 127 110 130 257 8 367 -81 73 -182 86
-279 38z m191 -58 c131 -66 134 -247 6 -316 l-46 -24 0 -92 c0 -92 0 -93 -30
-108 -16 -8 -34 -15 -40 -15 -6 0 -10 39 -10 108 l0 108 -41 18 c-116 51 -133
232 -29 306 64 45 121 50 190 15z m742 6 c51 -22 81 -53 103 -103 18 -44 18
-60 4 -111 -12 -45 -50 -88 -99 -115 l-35 -19 -3 -106 c-1 -59 -5 -107 -8
-107 -3 0 -18 7 -34 15 -30 16 -30 16 -30 109 0 92 -1 94 -25 100 -39 10 -92
63 -111 111 -33 88 5 176 96 223 54 27 85 28 142 3z m-433 -535 c-3 -3 -40
-12 -84 -21 -279 -57 -502 -242 -606 -500 -54 -137 -59 -186 -59 -629 l0 -402
26 -52 c25 -50 97 -111 133 -113 12 0 11 -2 -4 -8 -29 -12 -105 6 -147 34 -21
14 -50 44 -65 67 l-28 42 0 460 0 461 28 80 c116 327 376 539 705 574 108 12
106 11 101 7z m234 -479 c78 -35 141 -97 179 -176 29 -58 33 -75 33 -151 0
-73 -4 -94 -29 -148 -37 -79 -123 -162 -198 -190 -58 -22 -194 -41 -148 -21
154 66 222 126 261 227 32 85 31 189 -4 265 -51 111 -112 166 -232 210 l-50
18 66 -4 c43 -3 87 -14 122 -30z m-107 -70 c90 -46 152 -138 161 -238 15 -159
-121 -309 -284 -312 -171 -4 -279 93 -291 263 -10 141 57 263 169 303 67 25
180 17 245 -16z m-356 -1149 c50 -29 125 -57 195 -74 l60 -14 -77 6 c-93 6
-162 25 -247 69 -46 24 -58 34 -45 38 29 7 75 -3 114 -25z m810 -4 c45 -23 42
-27 -15 -25 -42 2 -129 42 -113 53 18 11 75 -1 128 -28z"/>
<path d="M2366 5650 c-39 -12 -83 -56 -97 -97 -32 -99 73 -202 179 -173 88 23
130 129 82 207 -34 56 -102 82 -164 63z"/>
<path d="M5835 6429 c-88 -11 -211 -53 -284 -96 -89 -53 -202 -161 -260 -249
-28 -43 -63 -115 -82 -172 l-34 -97 -5 -400 -5 -400 -35 -70 c-62 -124 -45
-245 47 -340 54 -56 113 -79 203 -79 64 0 83 4 130 29 l54 30 58 -29 c48 -24
71 -29 128 -29 57 0 81 5 128 29 l58 29 58 -29 c48 -23 70 -28 133 -28 64 0
84 4 134 30 32 17 61 27 64 22 3 -4 26 -18 52 -31 59 -28 176 -31 236 -5 51
22 112 80 145 135 23 39 27 58 27 121 0 65 -4 84 -35 145 l-34 70 -6 395 c-6
376 -7 398 -29 465 -48 147 -153 306 -256 385 -125 96 -229 144 -365 166 -92
15 -133 16 -225 3z m284 -80 c237 -60 433 -262 503 -518 19 -69 22 -113 27
-461 l6 -385 33 -65 c71 -144 15 -283 -134 -326 -69 -20 -135 -7 -190 37 -45
35 -56 36 -99 4 -41 -32 -86 -46 -147 -46 -51 0 -124 27 -147 54 -18 23 -43
21 -74 -3 -69 -55 -173 -68 -244 -32 -22 11 -45 28 -52 36 -18 22 -54 20 -76
-4 -10 -11 -43 -29 -74 -41 -147 -55 -295 48 -294 206 0 49 6 72 34 125 l34
65 5 405 5 405 28 80 c16 44 40 100 54 125 40 70 131 177 182 214 193 141 394
182 620 125z"/>
<path d="M5813 6060 c-73 -24 -136 -69 -177 -128 -38 -53 -47 -140 -21 -195
61 -130 222 -205 380 -178 168 30 278 130 278 256 0 66 -23 113 -82 168 -90
84 -254 118 -378 77z m250 -70 c52 -19 113 -72 136 -117 15 -30 14 -89 -4
-122 -22 -44 -89 -96 -146 -114 -141 -46 -309 7 -365 114 -46 90 19 200 145
245 56 20 171 17 234 -6z"/>
<path d="M5995 5922 c-84 -28 -111 -112 -55 -175 70 -80 190 -37 190 67 0 50
-21 83 -66 102 -36 15 -39 15 -69 6z"/>
<path d="M4105 6390 c-320 -36 -570 -200 -699 -457 -38 -76 -74 -210 -85 -317
-19 -187 16 -364 104 -522 53 -94 164 -205 246 -244 35 -16 69 -30 76 -30 8 0
10 -24 7 -87 -5 -73 -2 -94 13 -122 25 -49 63 -73 121 -79 59 -5 119 22 146
69 l17 28 42 -43 c70 -73 163 -73 227 0 30 34 32 35 45 18 8 -11 15 -22 15
-25 0 -3 17 -15 39 -27 73 -41 163 -20 209 48 21 31 23 44 20 125 l-3 89 47
18 c126 47 232 151 307 300 74 149 86 202 86 388 -1 137 -4 166 -28 253 -35
127 -76 210 -153 305 -176 219 -502 346 -799 312z m300 -82 c58 -12 131 -39
204 -75 100 -48 125 -65 190 -132 92 -93 142 -176 181 -299 96 -299 38 -613
-150 -803 -73 -74 -147 -115 -227 -125 l-51 -6 14 -42 c9 -22 18 -70 21 -106
4 -56 2 -69 -16 -92 -42 -53 -126 -46 -157 14 -19 35 -25 150 -11 201 l7 27
-58 0 -58 0 4 -94 c3 -73 1 -101 -13 -129 -31 -67 -118 -74 -156 -14 -17 27
-19 47 -17 135 l3 102 -63 0 c-61 0 -63 -1 -56 -22 13 -42 7 -172 -9 -205 -22
-42 -67 -59 -116 -45 -61 19 -77 87 -46 202 8 30 15 58 15 61 0 4 -21 10 -47
14 -72 11 -151 57 -219 127 -78 81 -97 109 -134 201 -45 112 -61 197 -61 316
0 245 74 433 232 592 55 54 88 77 181 122 211 103 388 125 613 75z"/>
<path d="M3811 5820 c-41 -10 -76 -35 -115 -84 -25 -30 -31 -48 -34 -100 -3
-45 1 -73 12 -98 75 -157 293 -161 370 -7 14 29 26 69 26 88 0 39 -31 114 -58
144 -42 47 -136 74 -201 57z m126 -80 c90 -54 85 -196 -7 -242 -120 -61 -256
65 -196 180 16 30 53 66 76 75 34 12 96 6 127 -13z"/>
<path d="M3812 5724 c-78 -55 -62 -178 27 -205 51 -15 87 -5 123 33 22 24 28
39 28 75 0 38 -5 50 -34 79 -28 28 -41 34 -78 34 -24 0 -54 -7 -66 -16z"/>
<path d="M4468 5816 c-56 -20 -85 -42 -115 -88 -23 -33 -28 -52 -28 -103 0
-105 66 -187 166 -205 123 -23 239 74 239 199 0 64 -11 91 -56 140 -25 29 -51
45 -87 56 -61 18 -71 18 -119 1z m126 -71 c17 -8 37 -25 45 -37 12 -19 10 -19
-18 5 -98 82 -238 -35 -174 -144 23 -39 76 -63 121 -55 51 8 85 45 93 103 l6
48 2 -40 c3 -105 -108 -175 -205 -129 -93 44 -100 190 -11 244 38 24 97 26
141 5z"/>
<path d="M2365 3555 c-69 -28 -121 -81 -131 -132 -26 -139 60 -235 239 -268
109 -20 161 -44 187 -88 62 -100 -24 -203 -166 -201 -79 2 -142 30 -184 83
-36 44 -76 55 -100 25 -11 -13 -10 -23 8 -59 56 -115 246 -172 401 -120 123
40 188 161 150 276 -31 92 -102 139 -249 164 -143 25 -190 59 -190 139 0 73
64 116 172 116 72 0 109 -17 164 -76 44 -47 59 -52 89 -31 39 29 -27 126 -117
171 -72 36 -186 36 -273 1z"/>
<path d="M3162 3560 c-170 -61 -262 -214 -249 -416 9 -147 82 -266 201 -324
118 -58 262 -61 379 -7 98 45 159 115 197 228 29 86 25 229 -9 304 -50 112
-120 179 -227 215 -76 27 -217 26 -292 0z m257 -85 c204 -72 265 -357 110
-516 -67 -69 -124 -93 -219 -93 -126 0 -223 63 -277 180 -35 77 -35 191 0 267
51 113 151 177 273 177 39 0 90 -7 113 -15z"/>
<path d="M4099 3556 c-104 -42 -162 -99 -213 -206 -29 -60 -31 -73 -31 -170 1
-142 23 -200 114 -291 49 -49 81 -72 126 -89 116 -44 280 -24 372 46 28 21 34
31 31 57 -2 27 -8 33 -31 35 -16 2 -39 -5 -56 -18 -76 -54 -203 -68 -283 -32
-52 24 -110 79 -146 141 -24 42 -27 55 -27 146 0 84 4 107 23 146 52 107 151
169 267 169 71 0 107 -12 182 -61 25 -16 36 -18 51 -10 45 24 37 60 -22 100
-95 66 -249 82 -357 37z"/>
<path d="M4692 3553 c-4 -10 -7 -181 -7 -381 0 -348 1 -364 19 -378 25 -18 37
-18 62 0 18 14 19 31 22 369 2 221 -1 364 -7 380 -9 22 -17 27 -46 27 -25 0
-38 -5 -43 -17z"/>
<path d="M5213 3558 c-16 -21 -303 -715 -303 -732 0 -8 11 -23 25 -32 37 -24
63 -2 100 87 l31 74 185 3 186 2 29 -76 c35 -92 61 -115 99 -90 14 9 25 24 25
33 0 19 -286 710 -302 731 -6 6 -23 12 -38 12 -15 0 -32 -6 -37 -12z m116
-334 c39 -98 70 -179 68 -181 -3 -2 -70 -2 -150 -1 l-145 3 71 177 c40 98 75
178 78 178 4 0 39 -79 78 -176z"/>
<path d="M5729 3553 c-11 -13 -14 -86 -14 -380 0 -349 1 -365 19 -379 16 -11
66 -14 243 -14 210 0 224 1 243 20 22 22 25 37 10 60 -7 12 -47 16 -212 20
l-203 5 -3 329 c-1 223 -6 334 -13 343 -16 18 -54 16 -70 -4z"/>
<path d="M4292 1762 c-9 -7 -12 -55 -10 -208 l3 -199 135 0 c113 0 135 2 135
15 0 12 -22 15 -122 18 l-123 3 0 74 0 74 93 3 c74 2 92 6 92 18 0 12 -18 16
-92 18 l-93 3 0 74 0 75 125 0 c100 0 125 3 125 14 0 8 -7 17 -16 20 -23 9
-237 7 -252 -2z"/>
<path d="M4772 1762 c-16 -11 -13 -408 3 -405 6 2 12 38 15 80 l5 78 42 3 43
3 55 -85 c30 -47 59 -86 64 -86 23 0 17 22 -24 89 -25 40 -45 75 -45 78 0 2
13 16 30 29 55 47 58 134 6 183 -35 33 -160 54 -194 33z m169 -61 c36 -37 38
-79 5 -117 -20 -24 -32 -28 -90 -32 l-66 -4 0 91 0 91 61 0 c54 0 64 -3 90
-29z"/>
<path d="M5254 1756 c-83 -36 -86 -140 -6 -180 15 -7 50 -19 77 -25 63 -16 95
-44 95 -86 0 -86 -132 -112 -200 -40 -13 14 -27 25 -32 25 -16 0 -7 -37 15
-58 71 -66 205 -53 242 25 37 78 -6 143 -112 167 -35 8 -73 22 -84 32 -22 20
-26 76 -5 93 43 36 119 31 163 -11 30 -28 50 -13 27 21 -33 47 -118 64 -180
37z"/>
<path d="M5672 1762 c-9 -7 -12 -55 -10 -208 l3 -199 135 0 c113 0 135 2 135
15 0 12 -22 15 -122 18 l-123 3 0 74 0 74 93 3 c74 2 92 6 92 18 0 12 -18 16
-92 18 l-93 3 0 74 0 75 125 0 c100 0 125 3 125 14 0 8 -7 17 -16 20 -23 9
-237 7 -252 -2z"/>
<path d="M2440 1603 c0 -137 3 -162 19 -189 54 -88 226 -88 281 1 18 29 20 49
20 189 0 128 -3 156 -14 156 -11 0 -15 -30 -18 -155 l-3 -155 -31 -31 c-39
-39 -101 -49 -157 -25 -57 23 -67 58 -67 226 0 118 -2 140 -15 140 -13 0 -15
-24 -15 -157z"/>
<path d="M2992 1560 c4 -247 22 -275 26 -40 1 88 6 160 11 160 5 0 44 -46 87
-102 165 -217 175 -229 190 -217 11 9 14 50 14 189 0 186 -3 210 -26 210 -11
0 -14 -31 -14 -166 0 -106 -4 -163 -10 -159 -5 3 -64 78 -131 166 -67 87 -128
159 -135 159 -12 0 -14 -33 -12 -200z"/>
<path d="M3532 1560 c4 -271 22 -273 26 -2 2 176 0 202 -13 202 -13 0 -15 -25
-13 -200z"/>
<path d="M3747 1753 c-4 -7 154 -388 166 -400 3 -3 10 -3 15 0 13 9 176 396
169 403 -17 18 -38 -18 -101 -170 -38 -91 -72 -164 -76 -161 -4 2 -38 79 -76
170 -61 147 -83 182 -97 158z"/>
</g>
</svg>
