<?xml version="1.0" standalone="no"?>
<!DOCTYPE svg PUBLIC "-//W3C//DTD SVG 20010904//EN"
 "http://www.w3.org/TR/2001/REC-SVG-20010904/DTD/svg10.dtd">
<svg version="1.0" xmlns="http://www.w3.org/2000/svg"
 width="512.000000pt" height="512.000000pt" viewBox="0 0 512.000000 512.000000"
 preserveAspectRatio="xMidYMid meet">
<metadata>
Created by potrace 1.16, written by Peter Selinger 2001-2019
</metadata>
<g transform="translate(0.000000,512.000000) scale(0.100000,-0.100000)"
fill="#000000" stroke="none">
<path d="M2376 4789 c-321 -37 -634 -175 -886 -391 -139 -119 -310 -334 -310
-390 0 -54 74 -98 116 -70 6 4 45 52 87 108 403 536 1100 734 1719 489 255
-101 497 -291 652 -513 31 -44 63 -83 72 -86 53 -20 114 18 114 72 0 73 -234
340 -415 473 -174 128 -426 242 -625 283 -169 34 -365 44 -524 25z"/>
<path d="M2435 4424 c-195 -30 -305 -63 -449 -137 -574 -293 -830 -977 -590
-1579 152 -383 472 -657 884 -759 82 -20 119 -23 280 -24 200 0 279 13 435 72
410 152 707 501 795 932 25 123 27 335 5 463 -89 507 -489 914 -997 1013 -82
16 -305 28 -363 19z m255 -164 c171 -22 343 -87 489 -185 201 -133 368 -368
437 -616 36 -127 45 -364 19 -490 -85 -420 -389 -745 -800 -856 -91 -24 -116
-27 -275 -27 -158 0 -185 3 -273 27 -429 115 -735 455 -812 901 -12 71 -6 279
10 365 108 561 644 953 1205 881z"/>
<path d="M1035 3900 c-253 -67 -448 -249 -531 -495 -39 -115 -45 -286 -15
-405 39 -158 123 -295 243 -397 94 -80 237 -149 346 -168 l42 -7 0 746 c0 410
-3 746 -7 745 -5 0 -39 -8 -78 -19z m-75 -730 l0 -531 -42 23 c-70 39 -180
155 -221 234 -52 102 -70 187 -64 309 8 154 60 275 165 382 39 40 139 113 154
113 5 0 8 -239 8 -530z"/>
<path d="M4000 3174 l0 -746 42 7 c106 18 252 88 340 163 164 139 254 320 265
533 11 218 -54 399 -199 554 -110 119 -238 188 -420 229 l-28 6 0 -746z m228
490 c105 -70 192 -181 232 -297 30 -86 38 -238 16 -331 -25 -104 -80 -200
-161 -281 -39 -38 -90 -80 -113 -93 l-42 -23 0 531 c0 291 3 530 8 530 4 0 31
-16 60 -36z"/>
<path d="M2310 1445 c-620 -85 -1145 -444 -1449 -990 -34 -60 -61 -115 -61
-122 0 -11 342 -13 1760 -13 1335 0 1760 3 1760 12 0 6 -21 50 -46 97 -304
563 -840 933 -1471 1016 -136 18 -362 18 -493 0z m549 -169 c366 -68 668 -221
934 -475 60 -58 144 -152 188 -210 l79 -106 -750 -3 c-412 -1 -1088 -1 -1500
0 l-750 3 79 105 c237 316 584 550 963 649 99 26 145 35 293 55 65 9 384 -3
464 -18z"/>
</g>
</svg>
